<svg width="103" height="36" viewBox="0 0 103 36" fill="none" xmlns="http://www.w3.org/2000/svg">
<path d="M1.68 15.096H5.424V10.2H7.296V15.096H11.904V16.824H7.296V24.552C7.296 25.032 7.512 25.272 7.944 25.272H11.328V27H7.272C6.728 27 6.28 26.824 5.928 26.472C5.592 26.12 5.424 25.672 5.424 25.128V16.824H1.68V15.096ZM25.4233 24.84H25.1353C24.7513 25.608 24.2473 26.216 23.6233 26.664C22.9993 27.112 22.2073 27.336 21.2473 27.336C20.5913 27.336 19.9833 27.224 19.4233 27C18.8793 26.792 18.4073 26.472 18.0073 26.04C17.6233 25.608 17.3193 25.072 17.0953 24.432C16.8873 23.792 16.7833 23.048 16.7833 22.2V15.096H18.6553V21.96C18.6553 23.208 18.9113 24.12 19.4233 24.696C19.9353 25.272 20.7193 25.56 21.7753 25.56C22.9113 25.56 23.7993 25.176 24.4393 24.408C25.0953 23.624 25.4233 22.584 25.4233 21.288V15.096H27.2953V29.928C27.2953 30.472 27.1193 30.92 26.7673 31.272C26.4313 31.624 25.9913 31.8 25.4473 31.8H18.6553V30.072H24.7753C25.2073 30.072 25.4233 29.832 25.4233 29.352V24.84ZM32.9186 31.8H31.0466V15.096H32.9186V16.968H33.2066C33.6226 16.248 34.1986 15.704 34.9346 15.336C35.6706 14.952 36.4706 14.76 37.3346 14.76C38.0706 14.76 38.7666 14.896 39.4226 15.168C40.0786 15.44 40.6546 15.832 41.1506 16.344C41.6626 16.856 42.0626 17.488 42.3506 18.24C42.6546 18.992 42.8066 19.848 42.8066 20.808V21.288C42.8066 22.264 42.6626 23.128 42.3746 23.88C42.0866 24.632 41.6866 25.264 41.1746 25.776C40.6786 26.288 40.0946 26.68 39.4226 26.952C38.7506 27.208 38.0386 27.336 37.2866 27.336C36.9026 27.336 36.5106 27.288 36.1106 27.192C35.7106 27.112 35.3266 26.984 34.9586 26.808C34.6066 26.616 34.2786 26.392 33.9746 26.136C33.6706 25.864 33.4146 25.544 33.2066 25.176H32.9186V31.8ZM36.9026 25.56C37.4786 25.56 38.0066 25.464 38.4866 25.272C38.9666 25.064 39.3826 24.776 39.7346 24.408C40.1026 24.04 40.3826 23.592 40.5746 23.064C40.7826 22.536 40.8866 21.944 40.8866 21.288V20.808C40.8866 20.168 40.7826 19.592 40.5746 19.08C40.3826 18.552 40.1026 18.104 39.7346 17.736C39.3826 17.352 38.9586 17.056 38.4626 16.848C37.9826 16.64 37.4626 16.536 36.9026 16.536C36.3426 16.536 35.8226 16.648 35.3426 16.872C34.8626 17.08 34.4386 17.376 34.0706 17.76C33.7186 18.144 33.4386 18.608 33.2306 19.152C33.0226 19.68 32.9186 20.264 32.9186 20.904V21.192C32.9186 21.848 33.0226 22.448 33.2306 22.992C33.4386 23.52 33.7186 23.976 34.0706 24.36C34.4386 24.744 34.8626 25.04 35.3426 25.248C35.8226 25.456 36.3426 25.56 36.9026 25.56ZM47.5419 21.624C47.5899 22.808 47.9579 23.76 48.6459 24.48C49.3339 25.2 50.2939 25.56 51.5259 25.56C52.0859 25.56 52.5739 25.496 52.9899 25.368C53.4059 25.24 53.7579 25.064 54.0459 24.84C54.3499 24.616 54.5899 24.36 54.7659 24.072C54.9579 23.768 55.1099 23.448 55.2219 23.112L56.9979 23.592C56.6619 24.696 56.0379 25.6 55.1259 26.304C54.2299 26.992 53.0139 27.336 51.4779 27.336C50.6299 27.336 49.8459 27.192 49.1259 26.904C48.4219 26.6 47.8139 26.176 47.3019 25.632C46.7899 25.088 46.3899 24.44 46.1019 23.688C45.8139 22.936 45.6699 22.104 45.6699 21.192V20.616C45.6699 19.784 45.8139 19.008 46.1019 18.288C46.4059 17.568 46.8219 16.952 47.3499 16.44C47.8779 15.912 48.4939 15.504 49.1979 15.216C49.9179 14.912 50.6939 14.76 51.5259 14.76C52.5019 14.76 53.3419 14.944 54.0459 15.312C54.7659 15.664 55.3499 16.104 55.7979 16.632C56.2619 17.16 56.5979 17.736 56.8059 18.36C57.0299 18.984 57.1419 19.56 57.1419 20.088V21.624H47.5419ZM51.5259 16.536C50.9979 16.536 50.5019 16.624 50.0379 16.8C49.5899 16.96 49.1899 17.192 48.8379 17.496C48.5019 17.8 48.2219 18.16 47.9979 18.576C47.7899 18.976 47.6539 19.416 47.5899 19.896H55.2699C55.2379 19.384 55.1099 18.92 54.8859 18.504C54.6779 18.088 54.3979 17.736 54.0459 17.448C53.7099 17.16 53.3179 16.936 52.8699 16.776C52.4379 16.616 51.9899 16.536 51.5259 16.536Z" fill="white"/>
<path d="M68.9813 23.4H63.2693L62.4533 27H59.1413L63.1493 10.2H69.1013L73.1093 27H69.7973L68.9813 23.4ZM63.9413 20.376H68.2853L66.3413 11.784H65.9093L63.9413 20.376ZM74.7726 10.2H86.8686V13.224H82.4046V27H79.2366V13.224H74.7726V10.2ZM93.1879 27H90.0199V10.2H93.1879V17.088H93.8839L98.3239 10.2H101.9V10.344L96.7159 18.384V18.816L102.188 26.856V27H98.4679L93.8839 20.112H93.1879V27Z" fill="#099268"/>
</svg>
